<svg xmlns="http://www.w3.org/2000/svg" xmlns:xlink="http://www.w3.org/1999/xlink" width="500" zoomAndPan="magnify" viewBox="0 0 375 289.499996" height="386" preserveAspectRatio="xMidYMid meet" version="1.0"><defs><clipPath id="da26fcdb20"><path d="M 0.324219 75 L 93 75 L 93 213 L 0.324219 213 Z M 0.324219 75 " clip-rule="nonzero"/></clipPath><clipPath id="aa5c6383a9"><path d="M 180 0.164062 L 374.675781 0.164062 L 374.675781 289 L 180 289 Z M 180 0.164062 " clip-rule="nonzero"/></clipPath></defs><g clip-path="url(#da26fcdb20)"><path fill="#57a7dd" d="M 41.679688 144.035156 L 0.605469 75.515625 L 51.113281 75.515625 L 92.460938 144.3125 L 51.113281 212.828125 L 0.328125 212.828125 Z M 41.679688 144.035156 " fill-opacity="1" fill-rule="evenodd"/></g><path fill="#307abe" d="M 142.667969 144.28125 L 79.65625 39.375 L 157.144531 39.375 L 220.578125 144.707031 L 157.144531 249.617188 L 79.230469 249.617188 Z M 142.667969 144.28125 " fill-opacity="1" fill-rule="evenodd"/><g clip-path="url(#aa5c6383a9)"><path fill="#273475" d="M 267.675781 144.203125 L 181.144531 0.164062 L 287.554688 0.164062 L 374.671875 144.789062 L 287.554688 288.828125 L 180.5625 288.828125 Z M 267.675781 144.203125 " fill-opacity="1" fill-rule="evenodd"/></g></svg>