<svg xmlns="http://www.w3.org/2000/svg" xmlns:xlink="http://www.w3.org/1999/xlink" width="500" zoomAndPan="magnify" viewBox="0 0 375 60" height="80" preserveAspectRatio="xMidYMid meet" version="1.0"><defs><g/><clipPath id="5a0b1bcf83"><path d="M 27 8.320312 L 56.25 8.320312 L 56.25 51.820312 L 27 51.820312 Z M 27 8.320312 " clip-rule="nonzero"/></clipPath></defs><g fill="#12130f" fill-opacity="1"><g transform="translate(71.571721, 45.75)"><g><path d="M 4.453125 -31.484375 L 16.234375 -31.484375 C 18.003906 -31.484375 19.613281 -31.25 21.0625 -30.78125 C 22.519531 -30.3125 23.765625 -29.648438 24.796875 -28.796875 C 25.835938 -27.941406 26.632812 -26.898438 27.1875 -25.671875 C 27.738281 -24.441406 28.015625 -23.050781 28.015625 -21.5 L 28.015625 -21.40625 C 28.015625 -19.695312 27.679688 -18.203125 27.015625 -16.921875 C 26.359375 -15.648438 25.46875 -14.578125 24.34375 -13.703125 C 23.226562 -12.835938 21.921875 -12.1875 20.421875 -11.75 C 18.921875 -11.320312 17.332031 -11.109375 15.65625 -11.109375 L 8 -11.109375 L 8 0 L 4.453125 0 Z M 15.78125 -14.34375 C 17.070312 -14.34375 18.25 -14.503906 19.3125 -14.828125 C 20.375 -15.160156 21.285156 -15.632812 22.046875 -16.25 C 22.816406 -16.863281 23.40625 -17.59375 23.8125 -18.4375 C 24.21875 -19.28125 24.421875 -20.222656 24.421875 -21.265625 L 24.421875 -21.359375 C 24.421875 -23.609375 23.644531 -25.3125 22.09375 -26.46875 C 20.550781 -27.625 18.507812 -28.203125 15.96875 -28.203125 L 8 -28.203125 L 8 -14.34375 Z M 15.78125 -14.34375 "/></g></g></g><g fill="#12130f" fill-opacity="1"><g transform="translate(101.600399, 45.75)"><g><path d="M 18.84375 0.546875 C 16.5625 0.546875 14.460938 0.125 12.546875 -0.71875 C 10.628906 -1.5625 8.960938 -2.707031 7.546875 -4.15625 C 6.140625 -5.613281 5.039062 -7.332031 4.25 -9.3125 C 3.457031 -11.289062 3.0625 -13.40625 3.0625 -15.65625 L 3.0625 -15.734375 C 3.0625 -17.953125 3.457031 -20.050781 4.25 -22.03125 C 5.039062 -24.007812 6.140625 -25.738281 7.546875 -27.21875 C 8.960938 -28.707031 10.644531 -29.878906 12.59375 -30.734375 C 14.539062 -31.585938 16.671875 -32.015625 18.984375 -32.015625 C 20.421875 -32.015625 21.710938 -31.894531 22.859375 -31.65625 C 24.015625 -31.414062 25.085938 -31.078125 26.078125 -30.640625 C 27.066406 -30.210938 27.976562 -29.691406 28.8125 -29.078125 C 29.65625 -28.460938 30.46875 -27.78125 31.25 -27.03125 L 28.828125 -24.421875 C 27.472656 -25.679688 26.023438 -26.710938 24.484375 -27.515625 C 22.941406 -28.328125 21.09375 -28.734375 18.9375 -28.734375 C 17.195312 -28.734375 15.582031 -28.398438 14.09375 -27.734375 C 12.613281 -27.078125 11.328125 -26.164062 10.234375 -25 C 9.140625 -23.832031 8.285156 -22.460938 7.671875 -20.890625 C 7.054688 -19.316406 6.75 -17.628906 6.75 -15.828125 L 6.75 -15.734375 C 6.75 -13.910156 7.054688 -12.210938 7.671875 -10.640625 C 8.285156 -9.066406 9.140625 -7.691406 10.234375 -6.515625 C 11.328125 -5.347656 12.613281 -4.425781 14.09375 -3.75 C 15.582031 -3.082031 17.195312 -2.75 18.9375 -2.75 C 21.09375 -2.75 22.945312 -3.144531 24.5 -3.9375 C 26.0625 -4.726562 27.59375 -5.84375 29.09375 -7.28125 L 31.4375 -4.984375 C 30.625 -4.148438 29.773438 -3.394531 28.890625 -2.71875 C 28.003906 -2.039062 27.050781 -1.460938 26.03125 -0.984375 C 25.019531 -0.503906 23.925781 -0.128906 22.75 0.140625 C 21.582031 0.410156 20.28125 0.546875 18.84375 0.546875 Z M 18.84375 0.546875 "/></g></g></g><g fill="#12130f" fill-opacity="1"><g transform="translate(134.955599, 45.75)"><g><path d="M 16.09375 -31.703125 L 19.421875 -31.703125 L 33.765625 0 L 29.953125 0 L 26.265625 -8.3125 L 9.125 -8.3125 L 5.390625 0 L 1.75 0 Z M 24.875 -11.515625 L 17.71875 -27.5625 L 10.515625 -11.515625 Z M 24.875 -11.515625 "/></g></g></g><g fill="#12130f" fill-opacity="1"><g transform="translate(170.468548, 45.75)"><g/></g></g><g fill="#12130f" fill-opacity="1"><g transform="translate(183.954483, 45.75)"><g><path d="M 4.453125 -31.484375 L 16.234375 -31.484375 C 18.003906 -31.484375 19.613281 -31.25 21.0625 -30.78125 C 22.519531 -30.3125 23.765625 -29.648438 24.796875 -28.796875 C 25.835938 -27.941406 26.632812 -26.898438 27.1875 -25.671875 C 27.738281 -24.441406 28.015625 -23.050781 28.015625 -21.5 L 28.015625 -21.40625 C 28.015625 -19.695312 27.679688 -18.203125 27.015625 -16.921875 C 26.359375 -15.648438 25.46875 -14.578125 24.34375 -13.703125 C 23.226562 -12.835938 21.921875 -12.1875 20.421875 -11.75 C 18.921875 -11.320312 17.332031 -11.109375 15.65625 -11.109375 L 8 -11.109375 L 8 0 L 4.453125 0 Z M 15.78125 -14.34375 C 17.070312 -14.34375 18.25 -14.503906 19.3125 -14.828125 C 20.375 -15.160156 21.285156 -15.632812 22.046875 -16.25 C 22.816406 -16.863281 23.40625 -17.59375 23.8125 -18.4375 C 24.21875 -19.28125 24.421875 -20.222656 24.421875 -21.265625 L 24.421875 -21.359375 C 24.421875 -23.609375 23.644531 -25.3125 22.09375 -26.46875 C 20.550781 -27.625 18.507812 -28.203125 15.96875 -28.203125 L 8 -28.203125 L 8 -14.34375 Z M 15.78125 -14.34375 "/></g></g></g><g fill="#12130f" fill-opacity="1"><g transform="translate(213.983161, 45.75)"><g><path d="M 10.796875 0.5 C 9.710938 0.5 8.65625 0.347656 7.625 0.046875 C 6.59375 -0.253906 5.660156 -0.710938 4.828125 -1.328125 C 4.003906 -1.941406 3.34375 -2.695312 2.84375 -3.59375 C 2.351562 -4.5 2.109375 -5.550781 2.109375 -6.75 L 2.109375 -6.828125 C 2.109375 -8.054688 2.347656 -9.132812 2.828125 -10.0625 C 3.304688 -11 3.988281 -11.78125 4.875 -12.40625 C 5.757812 -13.039062 6.804688 -13.519531 8.015625 -13.84375 C 9.234375 -14.175781 10.578125 -14.34375 12.046875 -14.34375 C 13.546875 -14.34375 14.847656 -14.253906 15.953125 -14.078125 C 17.066406 -13.898438 18.148438 -13.660156 19.203125 -13.359375 L 19.203125 -14.171875 C 19.203125 -16.265625 18.59375 -17.84375 17.375 -18.90625 C 16.164062 -19.96875 14.46875 -20.5 12.28125 -20.5 C 10.894531 -20.5 9.640625 -20.34375 8.515625 -20.03125 C 7.390625 -19.71875 6.289062 -19.304688 5.21875 -18.796875 L 4.1875 -21.625 C 5.46875 -22.226562 6.769531 -22.703125 8.09375 -23.046875 C 9.414062 -23.390625 10.929688 -23.5625 12.640625 -23.5625 C 15.929688 -23.5625 18.429688 -22.707031 20.140625 -21 C 21.734375 -19.40625 22.53125 -17.140625 22.53125 -14.203125 L 22.53125 0 L 19.203125 0 L 19.203125 -3.5 C 18.390625 -2.457031 17.300781 -1.53125 15.9375 -0.71875 C 14.570312 0.09375 12.859375 0.5 10.796875 0.5 Z M 11.46875 -2.25 C 12.539062 -2.25 13.550781 -2.40625 14.5 -2.71875 C 15.445312 -3.03125 16.269531 -3.460938 16.96875 -4.015625 C 17.675781 -4.578125 18.234375 -5.238281 18.640625 -6 C 19.046875 -6.769531 19.25 -7.617188 19.25 -8.546875 L 19.25 -10.796875 C 18.375 -11.035156 17.375 -11.257812 16.25 -11.46875 C 15.125 -11.675781 13.84375 -11.78125 12.40625 -11.78125 C 10.21875 -11.78125 8.539062 -11.34375 7.375 -10.46875 C 6.207031 -9.601562 5.625 -8.4375 5.625 -6.96875 L 5.625 -6.875 C 5.625 -6.15625 5.78125 -5.503906 6.09375 -4.921875 C 6.40625 -4.335938 6.832031 -3.847656 7.375 -3.453125 C 7.914062 -3.066406 8.535156 -2.769531 9.234375 -2.5625 C 9.941406 -2.351562 10.6875 -2.25 11.46875 -2.25 Z M 11.46875 -2.25 "/></g></g></g><g fill="#12130f" fill-opacity="1"><g transform="translate(240.011007, 45.75)"><g><path d="M 3.875 -23.25 L 7.328125 -23.25 L 7.328125 -17.171875 C 7.742188 -18.128906 8.265625 -19.015625 8.890625 -19.828125 C 9.523438 -20.640625 10.25 -21.335938 11.0625 -21.921875 C 11.875 -22.503906 12.757812 -22.945312 13.71875 -23.25 C 14.675781 -23.550781 15.707031 -23.6875 16.8125 -23.65625 L 16.8125 -19.921875 L 16.546875 -19.921875 C 15.285156 -19.921875 14.09375 -19.695312 12.96875 -19.25 C 11.84375 -18.800781 10.859375 -18.125 10.015625 -17.21875 C 9.179688 -16.320312 8.523438 -15.207031 8.046875 -13.875 C 7.566406 -12.539062 7.328125 -11.003906 7.328125 -9.265625 L 7.328125 0 L 3.875 0 Z M 3.875 -23.25 "/></g></g></g><g fill="#12130f" fill-opacity="1"><g transform="translate(258.217011, 45.75)"><g><path d="M 11.640625 0.40625 C 10.710938 0.40625 9.84375 0.285156 9.03125 0.046875 C 8.226562 -0.191406 7.535156 -0.570312 6.953125 -1.09375 C 6.367188 -1.625 5.910156 -2.304688 5.578125 -3.140625 C 5.242188 -3.984375 5.078125 -4.988281 5.078125 -6.15625 L 5.078125 -20.1875 L 1.84375 -20.1875 L 1.84375 -23.25 L 5.078125 -23.25 L 5.078125 -30.265625 L 8.546875 -30.265625 L 8.546875 -23.25 L 15.921875 -23.25 L 15.921875 -20.1875 L 8.546875 -20.1875 L 8.546875 -6.609375 C 8.546875 -5.171875 8.90625 -4.164062 9.625 -3.59375 C 10.34375 -3.03125 11.285156 -2.75 12.453125 -2.75 C 13.054688 -2.75 13.617188 -2.804688 14.140625 -2.921875 C 14.660156 -3.046875 15.222656 -3.253906 15.828125 -3.546875 L 15.828125 -0.578125 C 15.222656 -0.253906 14.582031 -0.0078125 13.90625 0.15625 C 13.238281 0.320312 12.484375 0.40625 11.640625 0.40625 Z M 11.640625 0.40625 "/></g></g></g><g fill="#12130f" fill-opacity="1"><g transform="translate(276.378063, 45.75)"><g><path d="M 3.875 -23.25 L 7.328125 -23.25 L 7.328125 -19.203125 C 8.109375 -20.460938 9.128906 -21.535156 10.390625 -22.421875 C 11.648438 -23.304688 13.285156 -23.75 15.296875 -23.75 C 16.703125 -23.75 17.953125 -23.519531 19.046875 -23.0625 C 20.140625 -22.613281 21.066406 -21.976562 21.828125 -21.15625 C 22.597656 -20.332031 23.179688 -19.347656 23.578125 -18.203125 C 23.984375 -17.066406 24.1875 -15.8125 24.1875 -14.4375 L 24.1875 0 L 20.734375 0 L 20.734375 -13.578125 C 20.734375 -15.734375 20.175781 -17.441406 19.0625 -18.703125 C 17.957031 -19.960938 16.367188 -20.59375 14.296875 -20.59375 C 13.304688 -20.59375 12.382812 -20.421875 11.53125 -20.078125 C 10.675781 -19.734375 9.929688 -19.238281 9.296875 -18.59375 C 8.671875 -17.945312 8.1875 -17.171875 7.84375 -16.265625 C 7.5 -15.367188 7.328125 -14.382812 7.328125 -13.3125 L 7.328125 0 L 3.875 0 Z M 3.875 -23.25 "/></g></g></g><g fill="#12130f" fill-opacity="1"><g transform="translate(304.069193, 45.75)"><g><path d="M 14.03125 0.546875 C 12.4375 0.546875 10.9375 0.253906 9.53125 -0.328125 C 8.125 -0.921875 6.894531 -1.75 5.84375 -2.8125 C 4.789062 -3.875 3.957031 -5.144531 3.34375 -6.625 C 2.726562 -8.113281 2.421875 -9.757812 2.421875 -11.5625 L 2.421875 -11.640625 C 2.421875 -13.328125 2.695312 -14.90625 3.25 -16.375 C 3.8125 -17.84375 4.585938 -19.125 5.578125 -20.21875 C 6.566406 -21.3125 7.742188 -22.171875 9.109375 -22.796875 C 10.472656 -23.429688 11.960938 -23.75 13.578125 -23.75 C 15.285156 -23.75 16.8125 -23.425781 18.15625 -22.78125 C 19.507812 -22.132812 20.648438 -21.253906 21.578125 -20.140625 C 22.515625 -19.035156 23.222656 -17.738281 23.703125 -16.25 C 24.179688 -14.769531 24.421875 -13.175781 24.421875 -11.46875 C 24.421875 -11.226562 24.421875 -11.03125 24.421875 -10.875 C 24.421875 -10.726562 24.40625 -10.550781 24.375 -10.34375 L 5.9375 -10.34375 C 6.050781 -9.082031 6.347656 -7.960938 6.828125 -6.984375 C 7.316406 -6.015625 7.925781 -5.191406 8.65625 -4.515625 C 9.394531 -3.835938 10.226562 -3.328125 11.15625 -2.984375 C 12.082031 -2.640625 13.070312 -2.46875 14.125 -2.46875 C 15.738281 -2.46875 17.125 -2.765625 18.28125 -3.359375 C 19.4375 -3.960938 20.492188 -4.757812 21.453125 -5.75 L 23.609375 -3.828125 C 22.441406 -2.503906 21.109375 -1.441406 19.609375 -0.640625 C 18.109375 0.148438 16.25 0.546875 14.03125 0.546875 Z M 20.90625 -12.90625 C 20.820312 -13.957031 20.601562 -14.960938 20.25 -15.921875 C 19.90625 -16.878906 19.425781 -17.71875 18.8125 -18.4375 C 18.195312 -19.15625 17.445312 -19.734375 16.5625 -20.171875 C 15.6875 -20.609375 14.660156 -20.828125 13.484375 -20.828125 C 12.472656 -20.828125 11.53125 -20.625 10.65625 -20.21875 C 9.789062 -19.8125 9.023438 -19.253906 8.359375 -18.546875 C 7.703125 -17.847656 7.160156 -17.015625 6.734375 -16.046875 C 6.316406 -15.085938 6.050781 -14.039062 5.9375 -12.90625 Z M 20.90625 -12.90625 "/></g></g></g><g fill="#12130f" fill-opacity="1"><g transform="translate(330.68142, 45.75)"><g><path d="M 3.875 -23.25 L 7.328125 -23.25 L 7.328125 -17.171875 C 7.742188 -18.128906 8.265625 -19.015625 8.890625 -19.828125 C 9.523438 -20.640625 10.25 -21.335938 11.0625 -21.921875 C 11.875 -22.503906 12.757812 -22.945312 13.71875 -23.25 C 14.675781 -23.550781 15.707031 -23.6875 16.8125 -23.65625 L 16.8125 -19.921875 L 16.546875 -19.921875 C 15.285156 -19.921875 14.09375 -19.695312 12.96875 -19.25 C 11.84375 -18.800781 10.859375 -18.125 10.015625 -17.21875 C 9.179688 -16.320312 8.523438 -15.207031 8.046875 -13.875 C 7.566406 -12.539062 7.328125 -11.003906 7.328125 -9.265625 L 7.328125 0 L 3.875 0 Z M 3.875 -23.25 "/></g></g></g><g fill="#12130f" fill-opacity="1"><g transform="translate(348.887413, 45.75)"><g><path d="M 11.5625 0.453125 C 9.875 0.453125 8.175781 0.144531 6.46875 -0.46875 C 4.757812 -1.082031 3.25 -1.914062 1.9375 -2.96875 L 3.6875 -5.4375 C 4.945312 -4.476562 6.257812 -3.742188 7.625 -3.234375 C 8.988281 -2.722656 10.359375 -2.46875 11.734375 -2.46875 C 13.140625 -2.46875 14.289062 -2.796875 15.1875 -3.453125 C 16.09375 -4.117188 16.546875 -5.019531 16.546875 -6.15625 L 16.546875 -6.25 C 16.546875 -6.820312 16.390625 -7.316406 16.078125 -7.734375 C 15.765625 -8.148438 15.335938 -8.515625 14.796875 -8.828125 C 14.253906 -9.148438 13.628906 -9.429688 12.921875 -9.671875 C 12.222656 -9.910156 11.5 -10.132812 10.75 -10.34375 C 9.851562 -10.613281 8.945312 -10.90625 8.03125 -11.21875 C 7.113281 -11.53125 6.285156 -11.925781 5.546875 -12.40625 C 4.816406 -12.882812 4.21875 -13.484375 3.75 -14.203125 C 3.289062 -14.929688 3.0625 -15.832031 3.0625 -16.90625 L 3.0625 -17 C 3.0625 -17.988281 3.253906 -18.894531 3.640625 -19.71875 C 4.035156 -20.539062 4.582031 -21.242188 5.28125 -21.828125 C 5.988281 -22.410156 6.828125 -22.859375 7.796875 -23.171875 C 8.773438 -23.492188 9.832031 -23.65625 10.96875 -23.65625 C 12.40625 -23.65625 13.859375 -23.421875 15.328125 -22.953125 C 16.796875 -22.492188 18.132812 -21.875 19.34375 -21.09375 L 17.765625 -18.484375 C 16.679688 -19.171875 15.546875 -19.71875 14.359375 -20.125 C 13.179688 -20.53125 12.019531 -20.734375 10.875 -20.734375 C 9.5 -20.734375 8.40625 -20.410156 7.59375 -19.765625 C 6.789062 -19.117188 6.390625 -18.316406 6.390625 -17.359375 L 6.390625 -17.265625 C 6.390625 -16.722656 6.550781 -16.25 6.875 -15.84375 C 7.207031 -15.445312 7.648438 -15.097656 8.203125 -14.796875 C 8.753906 -14.492188 9.390625 -14.222656 10.109375 -13.984375 C 10.835938 -13.742188 11.585938 -13.503906 12.359375 -13.265625 C 13.265625 -12.992188 14.160156 -12.691406 15.046875 -12.359375 C 15.929688 -12.035156 16.734375 -11.617188 17.453125 -11.109375 C 18.171875 -10.597656 18.742188 -9.984375 19.171875 -9.265625 C 19.609375 -8.546875 19.828125 -7.660156 19.828125 -6.609375 L 19.828125 -6.515625 C 19.828125 -5.410156 19.609375 -4.429688 19.171875 -3.578125 C 18.742188 -2.722656 18.160156 -1.992188 17.421875 -1.390625 C 16.691406 -0.796875 15.820312 -0.335938 14.8125 -0.015625 C 13.8125 0.296875 12.726562 0.453125 11.5625 0.453125 Z M 11.5625 0.453125 "/></g></g></g><path fill="#0096cc" d="M 6.214844 30 L 0.0429688 19.675781 L 7.632812 19.675781 L 13.84375 30.042969 L 7.632812 40.367188 L 0 40.367188 Z M 6.214844 30 " fill-opacity="1" fill-rule="evenodd"/><path fill="#307abe" d="M 21.386719 30.039062 L 11.921875 14.230469 L 23.5625 14.230469 L 33.09375 30.101562 L 23.5625 45.914062 L 11.855469 45.914062 Z M 21.386719 30.039062 " fill-opacity="1" fill-rule="evenodd"/><g clip-path="url(#5a0b1bcf83)"><path fill="#273475" d="M 40.171875 30.027344 L 27.171875 8.320312 L 43.160156 8.320312 L 56.25 30.117188 L 43.160156 51.820312 L 27.082031 51.820312 Z M 40.171875 30.027344 " fill-opacity="1" fill-rule="evenodd"/></g></svg>